<svg width="24" height="24" viewBox="0 0 24 24" fill="none" xmlns="http://www.w3.org/2000/svg">
<path d="M5.275 10.4875C7.075 14.025 9.975 16.9125 13.5125 18.725L16.2625 15.975C16.6 15.6375 17.1 15.525 17.5375 15.675C18.9375 16.1375 20.45 16.3875 22 16.3875C22.6875 16.3875 23.25 16.95 23.25 17.6375V22C23.25 22.6875 22.6875 23.25 22 23.25C10.2625 23.25 0.75 13.7375 0.75 2C0.75 1.3125 1.3125 0.75 2 0.75H6.375C7.0625 0.75 7.625 1.3125 7.625 2C7.625 3.5625 7.875 5.0625 8.3375 6.4625C8.475 6.9 8.375 7.3875 8.025 7.7375L5.275 10.4875Z" fill="white"/>
</svg>
